<svg width="75" height="75" viewBox="0 0 75 75" fill="none" xmlns="http://www.w3.org/2000/svg">
<path d="M72.9313 51.2062C71.8396 54.4801 71.8396 58.0199 72.9313 61.2938C73.4736 62.9206 73.75 64.6242 73.75 66.3391V69.3312C73.7499 70.2052 73.4907 71.0595 73.0051 71.7861C72.5195 72.5128 71.8294 73.0791 71.022 73.4136C70.2146 73.7481 69.3261 73.8356 68.4689 73.6652C67.6118 73.4948 66.8243 73.0741 66.2062 72.4563L65 71.25L64.2672 71.9828C63.1354 73.1144 61.6004 73.75 60 73.75C58.3996 73.75 56.8646 73.1144 55.7328 71.9828L55 71.25L53.7937 72.4563C53.1757 73.0741 52.3882 73.4948 51.5311 73.6652C50.6739 73.8356 49.7854 73.7481 48.978 73.4136C48.1706 73.0791 47.4805 72.5128 46.9949 71.7861C46.5093 71.0595 46.2501 70.2052 46.25 69.3312V66.3391C46.2502 64.6242 46.5266 62.9206 47.0687 61.2938C48.1604 58.0199 48.1604 54.4801 47.0687 51.2062C46.5355 49.6079 46.2597 47.9349 46.2516 46.25C46.25 46.2203 46.25 46.1906 46.25 46.1609V28.75C46.25 27.1647 46.5623 25.5949 47.169 24.1303C47.7757 22.6657 48.6649 21.335 49.7859 20.2141L51.4641 18.5359C53.4212 16.5765 54.6462 14.0044 54.9344 11.25C54.9782 10.8348 55.0001 10.4175 55 10V7.5H65V10C64.9999 10.4175 65.0218 10.8348 65.0656 11.25C65.3538 14.0044 66.5788 16.5765 68.5359 18.5359L70.2141 20.2141C72.4779 22.478 73.7498 25.5484 73.75 28.75V46.1609C73.75 46.1906 73.75 46.2203 73.7484 46.25C73.7453 47.0765 73.6769 47.9015 73.5437 48.7172C73.4069 49.562 73.2021 50.3944 72.9313 51.2062Z" fill="#EBEBE9"/>
<path d="M72.9313 51.2062C71.8396 54.4801 71.8396 58.0199 72.9313 61.2938C73.4736 62.9206 73.75 64.6242 73.75 66.3391V69.3312C73.7499 70.2052 73.4907 71.0595 73.0051 71.7861C72.5195 72.5128 71.8294 73.0791 71.022 73.4136C70.2146 73.7481 69.3261 73.8356 68.4689 73.6652C67.6118 73.4948 66.8243 73.0741 66.2062 72.4562L65 71.25L64.2672 71.9828C63.1354 73.1144 61.6004 73.75 60 73.75C58.3996 73.75 56.8646 73.1144 55.7328 71.9828L55 71.25L53.7937 72.4562C53.1757 73.0741 52.3882 73.4948 51.5311 73.6652C50.6739 73.8356 49.7854 73.7481 48.978 73.4136C48.1706 73.0791 47.4805 72.5128 46.9949 71.7861C46.5093 71.0595 46.2501 70.2052 46.25 69.3312V66.3391C46.2502 64.6242 46.5266 62.9206 47.0687 61.2938C48.1589 58.0196 48.1589 54.4804 47.0687 51.2062C46.5355 49.6079 46.2597 47.9349 46.2516 46.25H46.25V28.75C46.25 27.1647 46.5623 25.595 47.169 24.1303C47.7757 22.6657 48.6649 21.335 49.7859 20.2141L51.4641 18.5359C52.4866 17.5141 53.3165 16.3163 53.9141 15H66.0859C66.6835 16.3163 67.5134 17.5141 68.5359 18.5359L70.2141 20.2141C72.136 22.1353 73.3527 24.6492 73.6672 27.3484C73.7222 27.8136 73.7499 28.2816 73.75 28.75V46.25H73.7484C73.7453 47.0765 73.6769 47.9015 73.5437 48.7172C73.4069 49.562 73.2021 50.3944 72.9313 51.2062Z" fill="#7EB457"/>
<path d="M72.9313 51.2062C71.8396 54.4801 71.8396 58.0198 72.9313 61.2937C73.4736 62.9205 73.75 64.6242 73.75 66.339V69.3312C73.7499 70.2052 73.4907 71.0594 73.0051 71.7861C72.5195 72.5127 71.8294 73.0791 71.022 73.4136C70.2146 73.748 69.3261 73.8356 68.4689 73.6652C67.6118 73.4948 66.8243 73.0741 66.2062 72.4562L65 71.25L64.2672 71.9828C63.1354 73.1143 61.6004 73.75 60 73.75C58.3996 73.75 56.8646 73.1143 55.7328 71.9828L55 71.25L53.7937 72.4562C53.1757 73.0741 52.3882 73.4948 51.5311 73.6652C50.6739 73.8356 49.7854 73.748 48.978 73.4136C48.1706 73.0791 47.4805 72.5127 46.9949 71.7861C46.5093 71.0594 46.2501 70.2052 46.25 69.3312V66.339C46.2502 64.6242 46.5266 62.9206 47.0687 61.2937C47.8404 58.9821 48.0708 56.5241 47.7422 54.1093C57.625 48.3296 66.6156 39.7015 73.6672 27.3484C73.7222 27.8135 73.7499 28.2815 73.75 28.75V46.25H73.7484C73.7453 47.0765 73.6769 47.9014 73.5437 48.7171C73.4069 49.562 73.2021 50.3943 72.9313 51.2062Z" fill="#79AD54"/>
<path d="M46.25 28.75H73.75V46.25H46.25V28.75Z" fill="#D0D24B"/>
<path d="M73.7502 28.75V46.25H58.5518C63.8236 41.5531 68.658 35.7781 72.8518 28.75H73.7502Z" fill="#C7C934"/>
<path d="M50 32.5H52.5V35H50V32.5Z" fill="#DEE051"/>
<path d="M50 37.5H52.5V42.5H50V37.5Z" fill="#DEE051"/>
<path d="M65.0658 11.25H54.9346C54.9784 10.8348 55.0003 10.4175 55.0002 10V7.5H65.0002V10C65.0001 10.4175 65.022 10.8348 65.0658 11.25Z" fill="#E0E0DE"/>
<path d="M56.25 1.25H63.75C64.0815 1.25 64.3995 1.3817 64.6339 1.61612C64.8683 1.85054 65 2.16848 65 2.5V7.5H55V2.5C55 2.16848 55.1317 1.85054 55.3661 1.61612C55.6005 1.3817 55.9185 1.25 56.25 1.25Z" fill="#7EB457"/>
<path d="M53.75 6.25H66.25V8.75H53.75V6.25Z" fill="#EBEBE9"/>
<path d="M27.9312 51.2062C26.8396 54.4801 26.8396 58.0199 27.9312 61.2938C28.4736 62.9206 28.75 64.6242 28.75 66.3391V69.3312C28.7499 70.2052 28.4907 71.0595 28.0051 71.7861C27.5195 72.5128 26.8294 73.0791 26.022 73.4136C25.2146 73.7481 24.3261 73.8356 23.4689 73.6652C22.6118 73.4948 21.8243 73.0741 21.2062 72.4563L20 71.25L19.2672 71.9828C18.1354 73.1144 16.6004 73.75 15 73.75C13.3996 73.75 11.8646 73.1144 10.7328 71.9828L10 71.25L8.79375 72.4563C8.17566 73.0741 7.38825 73.4948 6.53107 73.6652C5.6739 73.8356 4.78544 73.7481 3.97803 73.4136C3.17061 73.0791 2.48049 72.5128 1.99492 71.7861C1.50934 71.0595 1.25011 70.2052 1.25 69.3312V66.3391C1.25018 64.6242 1.52664 62.9206 2.06875 61.2938C2.61075 59.6674 2.8872 57.9643 2.8875 56.25C2.8872 54.5357 2.61075 52.8326 2.06875 51.2062C1.5355 49.6079 1.25966 47.9349 1.25156 46.25C1.25 46.2203 1.25 46.1906 1.25 46.1609V28.75C1.25002 27.1647 1.56229 25.5949 2.16899 24.1303C2.77569 22.6657 3.66493 21.335 4.78594 20.2141L6.46406 18.5359C7.48659 17.5141 8.31653 16.3163 8.91406 15C9.45574 13.8138 9.80037 12.5472 9.93438 11.25C9.97821 10.8348 10.0001 10.4175 10 10V7.5H20V10C19.9999 10.4175 20.0218 10.8348 20.0656 11.25C20.3538 14.0044 21.5788 16.5765 23.5359 18.5359L25.2141 20.2141C27.4779 22.478 28.7498 25.5484 28.75 28.75V46.1609C28.75 46.1906 28.75 46.2203 28.7484 46.25C28.7453 47.0765 28.6769 47.9015 28.5437 48.7172C28.4069 49.562 28.2021 50.3944 27.9312 51.2062Z" fill="#EBEBE9"/>
<path d="M27.9312 51.2062C26.8396 54.4801 26.8396 58.0199 27.9312 61.2938C28.4736 62.9206 28.75 64.6242 28.75 66.3391V69.3312C28.7499 70.2052 28.4907 71.0595 28.0051 71.7861C27.5195 72.5128 26.8294 73.0791 26.022 73.4136C25.2146 73.7481 24.3261 73.8356 23.4689 73.6652C22.6118 73.4948 21.8243 73.0741 21.2062 72.4562L20 71.25L19.2672 71.9828C18.1354 73.1144 16.6004 73.75 15 73.75C13.3996 73.75 11.8646 73.1144 10.7328 71.9828L10 71.25L8.79375 72.4562C8.17566 73.0741 7.38825 73.4948 6.53107 73.6652C5.6739 73.8356 4.78544 73.7481 3.97803 73.4136C3.17061 73.0791 2.48049 72.5128 1.99492 71.7861C1.50934 71.0595 1.25011 70.2052 1.25 69.3312V66.3391C1.25018 64.6242 1.52664 62.9206 2.06875 61.2938C2.61075 59.6674 2.8872 57.9643 2.8875 56.25C2.88749 55.534 2.83894 54.8188 2.74219 54.1094C2.60837 53.1228 2.38292 52.1509 2.06875 51.2062C1.5355 49.6079 1.25966 47.9349 1.25156 46.25H1.25V28.75C1.25002 27.1647 1.56229 25.595 2.16899 24.1303C2.77569 22.6657 3.66493 21.335 4.78594 20.2141L6.46406 18.5359C7.48659 17.5141 8.31653 16.3163 8.91406 15H21.0859C21.6835 16.3163 22.5134 17.5141 23.5359 18.5359L25.2141 20.2141C27.136 22.1353 28.3527 24.6492 28.6672 27.3484C28.7222 27.8136 28.7499 28.2816 28.75 28.75V46.25H28.7484C28.7453 47.0765 28.6769 47.9015 28.5437 48.7172C28.4069 49.562 28.2021 50.3944 27.9312 51.2062Z" fill="#FA6D00"/>
<path d="M27.9312 51.2062C26.8396 54.4801 26.8396 58.0198 27.9312 61.2937C28.4736 62.9205 28.75 64.6242 28.75 66.339V69.3312C28.7499 70.2052 28.4907 71.0594 28.0051 71.7861C27.5195 72.5127 26.8294 73.0791 26.022 73.4136C25.2146 73.748 24.3261 73.8356 23.4689 73.6652C22.6118 73.4948 21.8243 73.0741 21.2062 72.4562L20 71.25L19.2672 71.9828C18.1354 73.1143 16.6004 73.75 15 73.75C13.3996 73.75 11.8646 73.1143 10.7328 71.9828L10 71.25L8.79375 72.4562C8.17566 73.0741 7.38825 73.4948 6.53107 73.6652C5.6739 73.8356 4.78544 73.748 3.97803 73.4136C3.17061 73.0791 2.48049 72.5127 1.99492 71.7861C1.50934 71.0594 1.25011 70.2052 1.25 69.3312V66.339C1.25018 64.6242 1.52664 62.9206 2.06875 61.2937C2.61075 59.6673 2.8872 57.9643 2.8875 56.25C2.88749 55.5339 2.83894 54.8188 2.74219 54.1093C12.625 48.3296 21.6156 39.7015 28.6672 27.3484C28.7222 27.8135 28.7499 28.2815 28.75 28.75V46.25H28.7484C28.7453 47.0765 28.6769 47.9014 28.5437 48.7171C28.4069 49.562 28.2021 50.3943 27.9312 51.2062Z" fill="#F86400"/>
<path d="M1.25 28.75H28.75V46.25H1.25V28.75Z" fill="#F98500"/>
<path d="M28.7502 28.75V46.25H13.5518C18.8236 41.5531 23.658 35.7781 27.8518 28.75H28.7502Z" fill="#F77C00"/>
<path d="M20.0658 11.25H9.93457C9.97841 10.8348 10.0003 10.4175 10.0002 10V7.5H20.0002V10C20.0001 10.4175 20.022 10.8348 20.0658 11.25Z" fill="#E0E0DE"/>
<path d="M11.25 1.25H18.75C19.0815 1.25 19.3995 1.3817 19.6339 1.61612C19.8683 1.85054 20 2.16848 20 2.5V7.5H10V2.5C10 2.16848 10.1317 1.85054 10.3661 1.61612C10.6005 1.3817 10.9185 1.25 11.25 1.25Z" fill="#FA6D00"/>
<path d="M8.75 6.25H21.25V8.75H8.75V6.25Z" fill="#EBEBE9"/>
<path d="M50.4313 51.2062C49.3396 54.4801 49.3396 58.0199 50.4313 61.2938C50.9736 62.9206 51.25 64.6242 51.25 66.3391V69.3312C51.2499 70.2052 50.9907 71.0595 50.5051 71.7861C50.0195 72.5128 49.3294 73.0791 48.522 73.4136C47.7146 73.7481 46.8261 73.8356 45.9689 73.6652C45.1118 73.4948 44.3243 73.0741 43.7062 72.4563L42.5 71.25L41.7672 71.9828C40.6354 73.1144 39.1004 73.75 37.5 73.75C35.8996 73.75 34.3646 73.1144 33.2328 71.9828L32.5 71.25L31.2937 72.4563C30.6757 73.0741 29.8882 73.4948 29.0311 73.6652C28.1739 73.8356 27.2854 73.7481 26.478 73.4136C25.6706 73.0791 24.9805 72.5128 24.4949 71.7861C24.0093 71.0595 23.7501 70.2052 23.75 69.3312V66.3391C23.7502 64.6242 24.0266 62.9206 24.5688 61.2938C25.6604 58.0199 25.6604 54.4801 24.5688 51.2062C24.0355 49.6079 23.7597 47.9349 23.7516 46.25C23.75 46.2203 23.75 46.1906 23.75 46.1609V28.75C23.75 27.1647 24.0623 25.5949 24.669 24.1303C25.2757 22.6657 26.1649 21.335 27.2859 20.2141L28.9641 18.5359C30.9212 16.5765 32.1462 14.0044 32.4344 11.25C32.4782 10.8348 32.5001 10.4175 32.5 10V7.5H42.5V10C42.4999 10.4175 42.5218 10.8348 42.5656 11.25C42.8538 14.0044 44.0788 16.5765 46.0359 18.5359L47.7141 20.2141C49.9779 22.478 51.2498 25.5484 51.25 28.75V46.1609C51.25 46.1906 51.25 46.2203 51.2484 46.25C51.2453 47.0765 51.1769 47.9015 51.0437 48.7172C50.9069 49.562 50.7021 50.3944 50.4313 51.2062Z" fill="#EBEBE9"/>
<path d="M50.4313 51.2062C49.3396 54.4801 49.3396 58.0199 50.4313 61.2938C50.9736 62.9206 51.25 64.6242 51.25 66.3391V69.3312C51.2499 70.2052 50.9907 71.0595 50.5051 71.7861C50.0195 72.5128 49.3294 73.0791 48.522 73.4136C47.7146 73.7481 46.8261 73.8356 45.9689 73.6652C45.1118 73.4948 44.3243 73.0741 43.7062 72.4562L42.5 71.25L41.7672 71.9828C40.6354 73.1144 39.1004 73.75 37.5 73.75C35.8996 73.75 34.3646 73.1144 33.2328 71.9828L32.5 71.25L31.2937 72.4562C30.6757 73.0741 29.8882 73.4948 29.0311 73.6652C28.1739 73.8356 27.2854 73.7481 26.478 73.4136C25.6706 73.0791 24.9805 72.5128 24.4949 71.7861C24.0093 71.0595 23.7501 70.2052 23.75 69.3312V66.3391C23.7502 64.6242 24.0266 62.9206 24.5688 61.2938C25.6589 58.0196 25.6589 54.4804 24.5688 51.2062C24.0355 49.6079 23.7597 47.9349 23.7516 46.25H23.75V28.75C23.75 27.1647 24.0623 25.595 24.669 24.1303C25.2757 22.6657 26.1649 21.335 27.2859 20.2141L28.9641 18.5359C29.9866 17.5141 30.8165 16.3163 31.4141 15H43.5859C44.1835 16.3163 45.0134 17.5141 46.0359 18.5359L47.7141 20.2141C49.636 22.1353 50.8527 24.6492 51.1672 27.3484C51.2222 27.8136 51.2499 28.2816 51.25 28.75V46.25H51.2484C51.2453 47.0765 51.1769 47.9015 51.0437 48.7172C50.9069 49.562 50.7021 50.3944 50.4313 51.2062Z" fill="#693924"/>
<path d="M50.4313 51.2062C49.3396 54.4801 49.3396 58.0198 50.4313 61.2937C50.9736 62.9205 51.25 64.6242 51.25 66.339V69.3312C51.2499 70.2052 50.9907 71.0594 50.5051 71.7861C50.0195 72.5127 49.3294 73.0791 48.522 73.4136C47.7146 73.748 46.8261 73.8356 45.9689 73.6652C45.1118 73.4948 44.3243 73.0741 43.7062 72.4562L42.5 71.25L41.7672 71.9828C40.6354 73.1143 39.1004 73.75 37.5 73.75C35.8996 73.75 34.3646 73.1143 33.2328 71.9828L32.5 71.25L31.2937 72.4562C30.6757 73.0741 29.8882 73.4948 29.0311 73.6652C28.1739 73.8356 27.2854 73.748 26.478 73.4136C25.6706 73.0791 24.9805 72.5127 24.4949 71.7861C24.0093 71.0594 23.7501 70.2052 23.75 69.3312V66.339C23.7502 64.6242 24.0266 62.9206 24.5688 61.2937C25.3404 58.9821 25.5708 56.5241 25.2422 54.1093C35.125 48.3296 44.1156 39.7015 51.1672 27.3484C51.2222 27.8135 51.2499 28.2815 51.25 28.75V46.25H51.2484C51.2453 47.0765 51.1769 47.9014 51.0437 48.7171C50.9069 49.562 50.7021 50.3943 50.4313 51.2062Z" fill="#5C2E1A"/>
<path d="M23.75 28.75H51.25V46.25H23.75V28.75Z" fill="#F35244"/>
<path d="M51.2502 28.75V46.25H36.0518C41.3236 41.5531 46.158 35.7781 50.3517 28.75H51.2502Z" fill="#E64C3F"/>
<path d="M42.5658 11.25H32.4346C32.4784 10.8348 32.5003 10.4175 32.5002 10V7.5H42.5002V10C42.5001 10.4175 42.522 10.8348 42.5658 11.25Z" fill="#E0E0DE"/>
<path d="M33.75 1.25H41.25C41.5815 1.25 41.8995 1.3817 42.1339 1.61612C42.3683 1.85054 42.5 2.16848 42.5 2.5V7.5H32.5V2.5C32.5 2.16848 32.6317 1.85054 32.8661 1.61612C33.1005 1.3817 33.4185 1.25 33.75 1.25Z" fill="#F35244"/>
<path d="M31.25 6.25H43.75V8.75H31.25V6.25Z" fill="#EBEBE9"/>
<path d="M63.75 36.25V45.4172C63.7502 48.4309 63.0483 51.4032 61.7 54.0984C60.5784 56.3455 59.9019 58.7883 59.7078 61.2922L58.75 73.75H43.75L42.7922 61.2922C42.5985 58.7882 41.922 56.3454 40.8 54.0984C39.4507 51.4035 38.7488 48.431 38.75 45.4172V36.25H63.75Z" fill="#EBEBE9"/>
<path d="M63.75 42.5V45.4172C63.75 45.9781 63.725 46.5375 63.6781 47.0937C63.4664 49.5325 62.7952 51.9092 61.7 54.0984C60.5784 56.3455 59.9019 58.7883 59.7078 61.2922L58.75 73.75H43.75L43.2578 67.35L42.7922 61.2922C42.5985 58.7882 41.922 56.3454 40.8 54.0984C39.4507 51.4035 38.7488 48.431 38.75 45.4172V42.5H63.75Z" fill="#F98500"/>
<path d="M63.6781 47.0939C63.4664 49.5326 62.7952 51.9093 61.7 54.0986C60.5784 56.3456 59.9019 58.7884 59.7078 61.2923L58.75 73.7501H43.75L43.2578 67.3501C50.6484 62.572 57.5953 55.9611 63.6781 47.0939Z" fill="#F77C00"/>
<path d="M73.986 23.6527C73.3177 22.0355 72.3362 20.5665 71.0979 19.3302L69.4198 17.652C67.3921 15.6214 66.2522 12.8697 66.2499 10V8.75H67.4999V6.25H66.2499V2.5C66.2491 1.8372 65.9855 1.20177 65.5168 0.733101C65.0482 0.26443 64.4127 0.000785676 63.7499 0H56.2499C55.5871 0.000785676 54.9517 0.26443 54.483 0.733101C54.0144 1.20177 53.7507 1.8372 53.7499 2.5V6.25H52.4999V8.75H53.7499V10C53.7477 12.8697 52.6078 15.6214 50.5801 17.652L52.3479 19.4198C54.8445 16.9204 56.2478 13.5327 56.2499 10V8.75H63.7499V10C63.7521 13.5327 65.1554 16.9204 67.652 19.4198L69.3301 21.098C71.0552 22.8212 72.1461 25.0777 72.4251 27.5H54.9999V30H72.4999V45H67.4999V47.5H72.4374C72.4062 47.8405 72.3652 48.18 72.3104 48.5156C72.1841 49.2945 71.9952 50.062 71.7457 50.8106C70.5685 54.3411 70.5685 58.1581 71.7457 61.6886C72.2459 63.188 72.5006 64.7584 72.4999 66.3391V69.3313C72.4999 69.958 72.314 70.5706 71.9657 71.0917C71.6175 71.6128 71.1226 72.019 70.5436 72.2588C69.9645 72.4987 69.3274 72.5615 68.7127 72.4392C68.098 72.317 67.5333 72.0153 67.0901 71.5722L65.8838 70.3661C65.7678 70.25 65.63 70.1579 65.4783 70.0951C65.3266 70.0323 65.1641 70 64.9999 70C64.8358 70 64.6732 70.0323 64.5216 70.0951C64.3699 70.1579 64.2321 70.25 64.116 70.3661L63.3831 71.0989C63.2365 71.2457 63.0805 71.3827 62.916 71.5091L64.4395 73.4912C64.6333 73.3422 64.8196 73.1834 64.9976 73.0156L65.3221 73.3402C66.1149 74.1331 67.1251 74.6732 68.2249 74.892C69.3246 75.1108 70.4646 74.9985 71.5005 74.5694C72.5365 74.1402 73.4219 73.4135 74.0448 72.4811C74.6677 71.5487 75.0001 70.4526 74.9999 69.3313V66.3391C75.0005 64.49 74.7024 62.6529 74.1171 60.8989C73.1112 57.8819 73.1112 54.62 74.1171 51.603C74.4089 50.7273 74.6298 49.8296 74.7777 48.9186C74.9195 48.0489 74.9933 47.1695 74.9985 46.2883C74.9985 46.2755 75.0004 46.263 75.0004 46.25V28.75C75.0016 27.0006 74.6569 25.2683 73.986 23.6527ZM56.2499 6.25V2.5H63.7499V6.25H56.2499Z" fill="#1A1A1A"/>
<path d="M18.3832 71.0989C17.4858 71.996 16.2689 72.4999 15 72.5C13.7319 72.4964 12.5163 71.993 11.6169 71.0989L10.884 70.3661C10.7679 70.25 10.6301 70.1579 10.4784 70.0951C10.3268 70.0323 10.1642 69.9999 10 69.9999C9.83589 69.9999 9.67334 70.0323 9.52168 70.0951C9.37002 70.1579 9.23222 70.25 9.11614 70.3661L7.90989 71.5722C7.46665 72.0153 6.90199 72.317 6.28728 72.4392C5.67258 72.5614 5.03544 72.4987 4.45641 72.2588C3.87739 72.019 3.38248 71.6128 3.03425 71.0917C2.68603 70.5706 2.50013 69.958 2.50005 69.3312V66.3391C2.50024 64.7585 2.75507 63.1883 3.25474 61.6887C3.83964 59.9351 4.13775 58.0986 4.13755 56.25C4.13771 54.4012 3.83961 52.5646 3.25474 50.8108C2.89686 49.7376 2.66458 48.6266 2.56255 47.5H20V45H2.50005V30H20V27.5H2.57396C2.8489 25.0763 3.94077 22.8184 5.66989 21.098L7.34802 19.4198C8.28198 18.4859 9.07093 17.4175 9.68864 16.25H20.3116C20.9293 17.4175 21.7182 18.4859 22.6521 19.4198L24.4199 17.652C22.3922 15.6214 21.2523 12.8697 21.25 10V8.75H22.5V6.25H21.25V2.5C21.2493 1.8372 20.9856 1.20177 20.5169 0.733101C20.0483 0.26443 19.4128 0.000785676 18.75 0H11.25C10.5872 0.000785676 9.95182 0.26443 9.48315 0.733101C9.01448 1.20177 8.75083 1.8372 8.75005 2.5V6.25H7.50005V8.75H8.75005V10C8.75247 11.5472 8.42019 13.0766 7.77599 14.4833C7.24098 15.6632 6.4971 16.7367 5.58021 17.652L3.90208 19.3302C2.66113 20.5643 1.67729 22.0323 1.0075 23.6492C0.337715 25.2661 -0.00470881 26.9998 4.89055e-05 28.75V46.25C4.89055e-05 46.2628 0.00161127 46.2752 0.00192377 46.2878C0.0134846 48.094 0.310808 49.887 0.882861 51.6003C1.38292 53.0995 1.63776 54.6696 1.63755 56.25C1.63775 57.8295 1.38307 59.3987 0.88333 60.897C0.298699 62.6519 0.000454817 64.4894 4.89055e-05 66.3391V69.3312C-2.84686e-05 70.4525 0.332409 71.5486 0.955318 72.481C1.57823 73.4133 2.46363 74.14 3.49955 74.5691C4.53547 74.9982 5.67538 75.1105 6.77512 74.8918C7.87485 74.673 8.88502 74.133 9.67786 73.3401L10.0024 73.0155C11.3572 74.2855 13.1431 74.9947 15 75C16.9319 74.9996 18.7846 74.2324 20.1511 72.8669L20.884 72.1339L19.1161 70.3661L18.3832 71.0989ZM11.25 8.75H18.75V10C18.7487 11.2694 18.93 12.5323 19.2885 13.75H10.7116C11.0701 12.5323 11.2515 11.2694 11.25 10V8.75ZM11.25 2.5H18.75V6.25H11.25V2.5Z" fill="#1A1A1A"/>
<path d="M5 32.5H7.5V35H5V32.5Z" fill="#1A1A1A"/>
<path d="M5 37.5H7.5V42.5H5V37.5Z" fill="#1A1A1A"/>
<path d="M37.5 72.5C36.2318 72.4964 35.0162 71.993 34.1169 71.0989L33.3839 70.3661C33.2678 70.25 33.13 70.1579 32.9784 70.0951C32.8267 70.0323 32.6642 70 32.5 70C32.3358 70 32.1733 70.0323 32.0216 70.0951C31.87 70.1579 31.7322 70.25 31.6161 70.3661L30.4098 71.5722C29.9667 72.0155 29.402 72.3175 28.7872 72.4398C28.1724 72.5621 27.5352 72.4994 26.9561 72.2595C26.377 72.0196 25.882 71.6134 25.5338 71.0921C25.1856 70.5709 24.9999 69.9581 25 69.3313V66.3391C25.0002 64.7585 25.255 63.1883 25.7547 61.6888C26.9318 58.1583 26.9318 54.3412 25.7547 50.8108C25.3968 49.7376 25.1645 48.6266 25.0625 47.5H35V45H25V30H50V32.5H52.5V28.75C52.5007 25.8166 51.5319 22.9652 49.7442 20.6394C49.3983 20.1855 46.9198 17.652 46.9198 17.652C44.8921 15.6214 43.7522 12.8697 43.75 10V8.75H45V6.25H43.75V2.5C43.7492 1.8372 43.4856 1.20177 43.0169 0.733101C42.5482 0.26443 41.9128 0.000785676 41.25 0H33.75C33.0872 0.000785676 32.4518 0.26443 31.9831 0.733101C31.5144 1.20177 31.2508 1.8372 31.25 2.5V6.25H30V8.75H31.25V10C31.248 12.8697 30.1081 15.6215 28.0802 17.652L26.402 19.3302C25.9925 19.7392 25.6107 20.175 25.2591 20.6348C23.4745 22.9642 22.5051 25.8156 22.5 28.75V46.25C22.5 46.2628 22.5016 46.2753 22.5019 46.288C22.5135 48.0942 22.8108 49.8872 23.3828 51.6005C24.3887 54.6175 24.3887 57.8794 23.3828 60.8964C22.7983 62.6515 22.5002 64.4892 22.5 66.3391V69.3313C22.5036 70.3968 22.8057 71.44 23.3721 72.3426C23.9384 73.2451 24.7464 73.9709 25.7044 74.4375C26.7638 74.949 27.9561 75.1181 29.116 74.9216C30.276 74.7251 31.346 74.1725 32.1778 73.3406L32.5023 73.0159C33.8572 74.2858 35.6431 74.9948 37.5 75C38.4566 75.0008 39.404 74.8124 40.2875 74.4455L39.3314 72.1356C38.7509 72.3767 38.1285 72.5005 37.5 72.5ZM33.75 8.75H41.25V10C41.2485 11.2694 41.4299 12.5323 41.7884 13.75H33.2116C33.5701 12.5323 33.7514 11.2694 33.75 10V8.75ZM33.75 2.5H41.25V6.25H33.75V2.5ZM27.2442 22.1545C27.5227 21.7892 29.848 19.4202 29.848 19.4202C30.782 18.4861 31.5709 17.4176 32.1886 16.25H42.8116C43.4292 17.4175 44.2181 18.4859 45.152 19.4198C45.152 19.4198 47.4773 21.7892 47.7603 22.1605C48.9534 23.7107 49.7018 25.5566 49.9252 27.5H25.0748C25.3039 25.5555 26.0534 23.7088 27.2442 22.1545Z" fill="#1A1A1A"/>
<path d="M27.5 32.5H30V35H27.5V32.5Z" fill="#1A1A1A"/>
<path d="M27.5 37.5H30V42.5H27.5V37.5Z" fill="#1A1A1A"/>
<path d="M65 36.25C65 35.9185 64.8683 35.6005 64.6339 35.3661C64.3995 35.1317 64.0815 35 63.75 35H38.75C38.4185 35 38.1005 35.1317 37.8661 35.3661C37.6317 35.6005 37.5 35.9185 37.5 36.25V45.4172C37.4989 48.6249 38.2459 51.7886 39.6817 54.657C40.7336 56.7586 41.3667 59.0447 41.5459 61.388L42.5036 73.8458C42.5277 74.1598 42.6695 74.4532 42.9006 74.6671C43.1317 74.8811 43.435 75 43.75 75H58.75C59.065 75 59.3683 74.8811 59.5994 74.6671C59.8305 74.4532 59.9723 74.1598 59.9964 73.8458L60.9541 61.3886C61.1357 59.0458 61.7686 56.7603 62.8178 54.6578C64.2494 51.7876 64.9964 48.6246 65 45.4172V36.25ZM62.5 37.5V41.25H40V37.5H62.5ZM60.5817 53.54C59.3879 55.9315 58.6679 58.5313 58.4614 61.1963L57.5925 72.5H44.9075L44.0386 61.1956C43.8346 58.5302 43.1142 55.9298 41.9177 53.5394C40.6553 51.018 39.9987 48.2369 40 45.4172V43.75H62.5V45.4172C62.4968 48.2366 61.8402 51.017 60.5817 53.54Z" fill="#1A1A1A"/>
<path d="M47.5 63.75H50V66.25H47.5V63.75Z" fill="#1A1A1A"/>
<path d="M51.25 58.75H53.75V61.25H51.25V58.75Z" fill="#1A1A1A"/>
<path d="M48.75 50H51.25V52.5H48.75V50Z" fill="#1A1A1A"/>
</svg>
