<svg width="78" height="78" viewBox="0 0 78 78" fill="none" xmlns="http://www.w3.org/2000/svg">
<path d="M76.2502 43.6875V46.3125C76.2502 50.7375 74.4002 54.9375 71.1877 57.9625L66.3252 57.225C67.8877 54.65 68.7502 51.65 68.7502 48.55V43.95C68.7502 41.3625 68.1502 38.85 67.0502 36.6C66.2377 34.925 65.1252 33.4 63.7627 32.0875L63.7752 32.075C64.4752 30.8 65.8127 30 67.3002 30C68.1627 30 69.0002 30.275 69.7002 30.7875C73.8252 33.8375 76.2502 38.6125 76.2502 43.6875Z" fill="#FCD770"/>
<path d="M62.3 30.8C62.825 31.2 63.325 31.625 63.7625 32.0875C65.125 33.4 66.2375 34.925 67.05 36.6C68.15 38.85 68.75 41.3625 68.75 43.95V48.55C68.75 51.65 67.8875 54.65 66.325 57.225L54.6 55.425V55.4125C54.0375 53.25 53.75 51.0375 53.75 48.7875V43.7125C53.75 41.975 53.925 40.2375 54.2625 38.5375C54.875 38.675 55.5375 38.75 56.25 38.75C59.0125 38.75 61.25 37.625 61.25 36.25C61.25 35.3625 60.325 34.5875 58.9375 34.15L59.3125 30.05C59.5125 30.0125 59.725 30 59.9375 30C60.7875 30 61.625 30.2875 62.3 30.8Z" fill="#FCD770"/>
<path d="M47.2125 30.5375C47.875 30.9125 48.4125 31.4625 48.775 32.15V32.1625C45.5875 35.225 43.75 39.475 43.75 43.95V48.55C43.75 50.3875 44.0625 52.1875 44.65 53.8875L37.6375 52.8125C36.7375 50.7875 36.25 48.5875 36.25 46.3125V43.6875C36.25 42.75 36.3375 41.8125 36.5 40.9C36.55 40.6375 36.6 40.375 36.6625 40.1125C37.5125 36.425 39.6625 33.1125 42.8 30.7875C43.5 30.275 44.3375 30 45.2 30C45.925 30 46.6125 30.1875 47.2125 30.5375Z" fill="#FCD770"/>
<path d="M53.1875 30.025L53.5625 34.15C52.175 34.5875 51.25 35.3625 51.25 36.25C51.25 37.275 52.4875 38.15 54.2625 38.5375C53.925 40.2375 53.75 41.975 53.75 43.7125V48.7875C53.75 51.0375 54.0375 53.25 54.6 55.4125L46.75 54.2125L44.65 53.8875C44.0625 52.1875 43.75 50.3875 43.75 48.55V43.95C43.75 39.475 45.5875 35.225 48.775 32.1625V32.15C49.275 31.6625 49.8 31.2125 50.3625 30.8C51.0625 30.2875 51.9125 30 52.7875 30C52.925 30 53.05 30.0125 53.175 30.025H53.1875Z" fill="#FCD770"/>
<path d="M61.25 36.25C61.25 37.625 59.0125 38.75 56.25 38.75C55.5375 38.75 54.875 38.675 54.2625 38.5375C52.4875 38.15 51.25 37.275 51.25 36.25C51.25 35.3625 52.175 34.5875 53.5625 34.15L53.1875 30.025L52.5125 22.6625C52.5 22.55 52.5 22.45 52.5 22.3375C52.5 20.35 54.1 18.75 56.0875 18.75H56.4125C57.4 18.75 58.3 19.15 58.95 19.8C59.6 20.45 60 21.35 60 22.3375C60 22.45 60 22.55 59.9875 22.6625L59.3125 30.05L58.9375 34.15C60.325 34.5875 61.25 35.3625 61.25 36.25Z" fill="#CF9E76"/>
<path d="M28.6375 6.4125C29.075 6.3125 29.5375 6.25 30 6.25C32.0375 6.25 33.8625 7.225 35 8.75L34.975 8.875C34.575 8.7875 34.175 8.75 33.75 8.75C31.1625 8.75 28.95 10.3125 28 12.55C27.8375 12.5375 27.675 12.5 27.5 12.5C24.3625 12.5 21.7875 14.825 21.3375 17.8375C17.6875 18.8875 15 22.25 15 26.25C15 29.6625 16.95 32.6 19.8 34.05C19.1375 35.0375 18.75 36.225 18.75 37.5C18.75 39.725 19.925 41.6625 21.675 42.775C21.4125 43.4625 21.25 44.2125 21.25 45C21.25 48.45 24.05 51.2875 27.5 51.2875C27.175 51.2625 26.8625 51.25 26.55 51.25H26.25C23.8125 51.25 21.5375 51.95 19.6125 53.1625L16.25 43.75C12.8 43.75 10 40.95 10 37.5C10 36.7125 10.1625 35.9625 10.425 35.275C8.675 34.1625 7.5 32.225 7.5 30C7.5 28.725 7.8875 27.5375 8.55 26.55C5.7 25.1 3.75 22.1625 3.75 18.75C3.75 14.75 6.4375 11.3875 10.0875 10.3375C10.5375 7.325 13.1125 5 16.25 5C16.425 5 16.5875 5.0375 16.75 5.05C17.7 2.8125 19.9125 1.25 22.5 1.25C25.575 1.25 28.125 3.475 28.6375 6.4125Z" fill="#8CC152"/>
<path d="M45.7 24.375C46.8125 25.5 47.5 27.05 47.5 28.75C47.5 29.3375 47.4125 29.9125 47.2625 30.45L47.2125 30.5375C46.6125 30.1875 45.925 30 45.2 30C44.3375 30 43.5 30.275 42.8 30.7875C39.6625 33.1125 37.5125 36.425 36.6625 40.1125C36.6 40.375 36.55 40.6375 36.5 40.9C36.3375 41.8125 36.25 42.75 36.25 43.6875V46.3125C36.25 48.5875 36.7375 50.7875 37.6375 52.8125L28.45 51.4C28.125 51.35 27.8125 51.3125 27.5 51.2875C24.05 51.2875 21.25 48.45 21.25 45C21.25 44.2125 21.4125 43.4625 21.675 42.775C19.925 41.6625 18.75 39.725 18.75 37.5C18.75 36.225 19.1375 35.0375 19.8 34.05C16.95 32.6 15 29.6625 15 26.25C15 22.25 17.6875 18.8875 21.3375 17.8375C21.7875 14.825 24.3625 12.5 27.5 12.5C27.675 12.5 27.8375 12.5375 28 12.55C28.95 10.3125 31.1625 8.75 33.75 8.75C34.175 8.75 34.575 8.7875 34.975 8.875C37.4875 9.375 39.45 11.375 39.8875 13.9125C40.325 13.8125 40.7875 13.75 41.25 13.75C44.7 13.75 47.5 16.55 47.5 20C47.5 21.7 46.8125 23.25 45.7 24.375Z" fill="#B4DD7F"/>
<path d="M7.25 61.25H14C13.8375 62.05 13.75 62.8875 13.75 63.75C13.75 64.6125 13.8375 65.45 14 66.25H7.25H3.75C3.0625 66.25 2.4375 65.975 1.9875 65.5125C1.525 65.0625 1.25 64.4375 1.25 63.75C1.25 62.375 2.375 61.25 3.75 61.25H7.25Z" fill="#B4DD7F"/>
<path d="M7.7375 56.3L15.175 57.9625C14.6375 58.9875 14.2375 60.0875 14 61.25H7.25C6.0125 61.25 5 60.2375 5 59V58.5C5 57.2625 6.0125 56.25 7.25 56.25C7.4125 56.25 7.575 56.2625 7.7375 56.3Z" fill="#B4DD7F"/>
<path d="M15.175 69.5375L7.7375 71.2C7.575 71.2375 7.4125 71.25 7.25 71.25C6.0125 71.25 5 70.2375 5 69V68.5C5 67.2625 6.0125 66.25 7.25 66.25H14C14.2375 67.4125 14.6375 68.5125 15.175 69.5375Z" fill="#B4DD7F"/>
<path d="M74.85 59.95C73.9625 58.925 72.725 58.2 71.3125 57.9875L71.1875 57.9625L66.325 57.225L54.6 55.425V55.4125L46.75 54.2125L44.65 53.8875L37.6375 52.8125L28.45 51.4C28.125 51.35 27.8125 51.3125 27.5 51.2875C27.175 51.2625 26.8625 51.25 26.55 51.25H26.25C23.8125 51.25 21.5375 51.95 19.6125 53.1625C17.7375 54.3375 16.2 56 15.175 57.9625C14.6375 58.9875 14.2375 60.0875 14 61.25C13.8375 62.05 13.75 62.8875 13.75 63.75C13.75 64.6125 13.8375 65.45 14 66.25C14.2375 67.4125 14.6375 68.5125 15.175 69.5375C15.7625 70.6625 16.525 71.7 17.4125 72.5875C19.675 74.85 22.8 76.25 26.25 76.25H26.55C27.175 76.25 27.8125 76.2 28.45 76.1L46.75 73.2875L71.3125 69.5125C74.15 69.075 76.25 66.625 76.25 63.75C76.25 62.3125 75.725 60.975 74.85 59.95Z" fill="#FF826E"/>
<path d="M77.5 43.6863C77.5 38.2438 74.8613 33.0462 70.4413 29.7837C69.54 29.1162 68.4225 28.75 67.2962 28.75C65.8862 28.75 64.565 29.3138 63.595 30.2725C63.4138 30.1213 63.2488 29.955 63.0613 29.8113C62.3675 29.2813 61.535 28.9663 60.68 28.8363L61.2313 22.775C61.2438 22.63 61.25 22.4838 61.25 22.3375C61.25 19.67 59.08 17.5 56.4125 17.5H56.0875C53.42 17.5 51.25 19.67 51.25 22.3375C51.25 22.4838 51.2562 22.63 51.27 22.7763L51.8237 28.8638C51.0312 29.0138 50.265 29.32 49.6175 29.8025C49.3938 29.97 49.195 30.1625 48.98 30.3387C48.8687 30.2237 48.7512 30.1163 48.63 30.0125C48.7012 29.5963 48.75 29.175 48.75 28.75C48.75 27.1625 48.255 25.6437 47.3375 24.375C48.255 23.1063 48.75 21.5888 48.75 20C48.75 15.72 45.1288 12.2513 40.8138 12.5138C40.0113 10.2138 38.14 8.48 35.84 7.81125C34.3175 5.9125 32.0225 4.85875 29.5637 5.01375C28.5287 2.0475 25.7263 0 22.5 0C19.7938 0 17.33 1.4475 16.0025 3.75375C12.6925 3.865 9.83125 6.20125 9.01125 9.38375C5.14125 10.8275 2.5 14.5738 2.5 18.75C2.5 22.0987 4.1475 25.16 6.87375 27.01C6.4625 27.9488 6.25 28.9638 6.25 30C6.25 32.25 7.25 34.3412 8.96625 35.7575C8.8225 36.3375 8.75 36.9212 8.75 37.5C8.75 41.33 11.6375 44.5 15.35 44.9463L18.115 52.69C16.6987 53.7338 15.4925 55.04 14.5638 56.54L8.015 55.085C7.76625 55.0275 7.51 55 7.2525 55C5.32125 55 3.75 56.5712 3.75 58.5025V58.9975C3.75 59.3475 3.8175 59.68 3.91375 60H3.75C1.6825 60 0 61.6825 0 63.75C0 65.8175 1.6825 67.5 3.75 67.5H3.91375C3.8175 67.82 3.75 68.1525 3.75 68.5025V68.9975C3.75 70.9288 5.32125 72.5 7.2525 72.5C7.51 72.5 7.76625 72.4725 8.0125 72.4162L14.5638 70.96C16.99 74.8775 21.3138 77.5 26.25 77.5H26.5438C27.2388 77.5 27.9425 77.4463 28.6337 77.34L71.4975 70.7462C74.975 70.21 77.5 67.2688 77.5 63.75C77.5 60.9363 75.8713 58.515 73.4463 57.3737C76.0363 54.28 77.5 50.355 77.5 46.3137V43.6863ZM61.5413 31.7975C65.2725 34.65 67.5 39.1938 67.5 43.955V48.5463C67.5 51.1088 66.8613 53.6175 65.6575 55.8563L55.6338 54.3138C55.2213 52.5 55 50.6475 55 48.7875V43.7125C55 42.4525 55.1263 41.1938 55.3175 39.9463C55.6238 39.9725 55.9288 40 56.25 40C59.8138 40 62.5 38.3875 62.5 36.25C62.5 35.07 61.6838 34.0225 60.27 33.335L60.4538 31.3125C60.8438 31.3912 61.2188 31.5488 61.5413 31.7975ZM56.0875 20H56.4137C57.7025 20 58.7513 21.0488 58.7513 22.3375C58.7513 22.4088 58.7487 22.48 58.7412 22.55L57.6062 35.0338L58.56 35.34C59.655 35.69 60 36.1512 60 36.25C60 36.5613 58.67 37.5 56.25 37.5C53.83 37.5 52.5 36.5613 52.5 36.25C52.5 36.1512 52.845 35.69 53.94 35.3387L54.8938 35.0325L53.7588 22.55C53.7525 22.4788 53.75 22.4075 53.75 22.3375C53.75 21.0488 54.7987 20 56.0875 20ZM52.05 31.3538L52.23 33.335C50.8162 34.0225 50 35.07 50 36.25C50 37.6275 51.1238 38.7787 52.87 39.4287C52.6463 40.8475 52.5 42.28 52.5 43.7125V48.7875C52.5 50.505 52.665 52.22 52.985 53.9062L45.6162 52.7725C45.215 51.3987 45 49.9825 45 48.545V43.9537C45 39.2 47.285 34.6575 51.1125 31.805C51.3912 31.5975 51.7125 31.445 52.05 31.3538ZM38.5413 51.6838C37.8625 49.9663 37.5 48.1675 37.5 46.3137V43.685C37.5 39.0325 39.76 34.5875 43.5437 31.7925C44.0187 31.4425 44.6087 31.25 45.2037 31.25C45.9587 31.25 46.6537 31.5537 47.1625 32.0625C44.215 35.2925 42.5 39.535 42.5 43.955V48.5463C42.5 49.835 42.6538 51.11 42.9325 52.36L38.5413 51.6838ZM38.6587 14.1262L38.8863 15.4125L40.1613 15.1287C40.5488 15.0425 40.905 15 41.25 15C44.0075 15 46.25 17.2425 46.25 20C46.25 21.3138 45.74 22.5562 44.815 23.4987L43.955 24.375L44.815 25.2513C45.74 26.1938 46.25 27.4362 46.25 28.75C46.25 28.7875 46.2425 28.825 46.2425 28.8638C45.9038 28.7963 45.5587 28.75 45.2037 28.75C44.0775 28.75 42.96 29.1163 42.0588 29.7825C39.7838 31.4613 37.9925 33.6575 36.7775 36.1313C36.3038 34.6563 35.8063 33.2438 35.2938 31.9025C36.45 25.795 40.7388 22.26 40.7825 22.2237L40 21.25L39.2188 20.2738C39.045 20.4125 35.6637 23.1738 33.765 28.155C31.1637 22.1825 28.7088 18.3187 28.5513 18.0737L26.4475 19.4263C26.4813 19.4775 28.3875 22.4763 30.6063 27.25C26.8675 25.8425 22.6187 26.2312 22.375 26.2562L22.6238 28.7438C24.5038 28.555 29.8287 28.6462 32.3162 31.185C33.1925 33.3387 34.0562 35.7 34.8187 38.23C31.0187 36.2812 26.485 36.25 26.25 36.25V38.75C26.3087 38.75 31.8737 38.7875 35.1675 41.4062C35.065 42.1587 35 42.9188 35 43.6863V46.315C35 48.0037 35.26 49.655 35.7425 51.255L28.6337 50.1613C28.2587 50.1038 27.88 50.065 27.5 50.0375C24.7425 50.0375 22.5 47.7775 22.5 45.0013C22.5 44.4188 22.6163 43.8212 22.8438 43.2225L23.2087 42.2663L22.3425 41.7188C20.8763 40.7912 20 39.215 20 37.5C20 36.5163 20.2887 35.5625 20.835 34.74L21.6138 33.57L20.3612 32.9338C17.825 31.6438 16.25 29.0838 16.25 26.25C16.25 22.9237 18.485 19.9613 21.6863 19.045L22.4625 18.8225L22.5788 18.0238C22.935 15.5875 25.0512 13.75 27.5 13.75C27.5463 13.75 27.5912 13.76 27.6362 13.7662C27.7237 13.7787 27.8125 13.79 27.9012 13.7962L28.7975 13.8688L29.15 13.0412C29.9387 11.1937 31.7438 10 33.75 10C36.1725 10 38.2362 11.735 38.6587 14.1262ZM17.1313 42.5H16.25C13.4925 42.5 11.25 40.2575 11.25 37.5C11.25 36.9162 11.3663 36.3187 11.5938 35.7225L11.96 34.7663L11.0938 34.2188C9.62625 33.2912 8.75 31.715 8.75 30C8.75 29.0163 9.03875 28.0625 9.585 27.24L10.3638 26.07L9.11125 25.4338C6.575 24.1438 5 21.5838 5 18.75C5 15.4237 7.235 12.4613 10.435 11.545L11.2113 11.3225L11.3275 10.5237C11.685 8.0875 13.8012 6.25 16.25 6.25C16.2975 6.25 16.3438 6.26 16.39 6.26625C16.475 6.2775 16.56 6.28875 16.6475 6.29625L17.5475 6.37125L17.9013 5.54C18.6888 3.69375 20.4938 2.5 22.5 2.5C24.9225 2.5 26.9863 4.235 27.4088 6.62625L27.6362 7.9125L28.9112 7.62875C29.2987 7.5425 29.655 7.5 30 7.5C30.575 7.5 31.1213 7.62625 31.6438 7.80875C29.8063 8.34625 28.2238 9.56625 27.2525 11.2537C23.9425 11.365 21.0812 13.7013 20.2612 16.8838C16.3912 18.3275 13.75 22.0738 13.75 26.25C13.75 29.5987 15.3975 32.66 18.1237 34.51C17.7125 35.4487 17.5 36.4638 17.5 37.5C17.5 39.75 18.5 41.8412 20.2163 43.2587C20.0725 43.8387 20 44.4212 20 45C20 47.1962 20.945 49.17 22.4412 50.5475C21.6987 50.7625 20.985 51.0412 20.3 51.3725L17.1313 42.5ZM6.25 58.9975V58.5025C6.25 57.875 6.8575 57.3913 7.47125 57.5238L13.42 58.8462C13.275 59.2237 13.145 59.6075 13.0338 60H7.2525C6.7 60 6.25 59.55 6.25 58.9975ZM2.5 63.75C2.5 63.0612 3.06125 62.5 3.75 62.5H7.2525H12.5625C12.5263 62.9125 12.5 63.3275 12.5 63.75C12.5 64.1725 12.5262 64.5875 12.5637 65H7.2525H3.75C3.06125 65 2.5 64.4388 2.5 63.75ZM7.46875 69.9762C6.87625 70.1037 6.25 69.6238 6.25 68.9975V68.5025C6.25 67.95 6.7 67.5 7.2525 67.5H13.0325C13.1437 67.8925 13.275 68.2762 13.4187 68.6537L7.46875 69.9762ZM75 63.75C75 66.0262 73.3675 67.9288 71.1188 68.275L28.2562 74.8688C27.6887 74.9563 27.1125 75 26.5438 75H26.25C20.0475 75 15 69.9525 15 63.75C15 57.5475 20.0475 52.5 26.25 52.5H26.5438C27.1125 52.5 27.6888 52.5438 28.255 52.63L71.1175 59.2238C73.3675 59.5713 75 61.4738 75 63.75ZM75 46.3137C75 50.1587 73.4438 53.8787 70.7363 56.6362L68.2525 56.2537C69.3938 53.8562 70 51.2275 70 48.545V43.9537C70 39.5112 68.3075 35.2475 65.4 32.0125C65.905 31.5363 66.575 31.25 67.2962 31.25C67.8925 31.25 68.4813 31.4425 68.9563 31.795C72.74 34.5875 75 39.0338 75 43.6863V46.3137Z" fill="#1A1A1A"/>
<path d="M25 57.5H27.5V70H25V57.5Z" fill="#1A1A1A"/>
<path d="M35 57.5H37.5V70H35V57.5Z" fill="#1A1A1A"/>
<path d="M45 57.5H47.5V70H45V57.5Z" fill="#1A1A1A"/>
<path d="M55 60H57.5V67.5H55V60Z" fill="#1A1A1A"/>
<path d="M65 61.25H67.5V66.25H65V61.25Z" fill="#1A1A1A"/>
</svg>
